<mxfile host="app.diagrams.net" modified="2020-10-23T00:53:14.402Z" agent="5.0 (Windows)" etag="dq5yl33a-RLhXQt38f8O" version="13.8.1" type="github">
  <diagram id="3uLTweckvVwDeaXn5LRC" name="Page-1">
    <mxGraphModel dx="803" dy="387" grid="1" gridSize="10" guides="1" tooltips="1" connect="1" arrows="1" fold="1" page="1" pageScale="1" pageWidth="827" pageHeight="1169" math="0" shadow="0">
      <root>
        <mxCell id="0" />
        <mxCell id="1" parent="0" />
        <mxCell id="SOv4PDBPDqA4SqC1FePv-4" value="Xradio Driver" style="rounded=0;whiteSpace=wrap;html=1;fillColor=#dae8fc;strokeColor=#6c8ebf;" vertex="1" parent="1">
          <mxGeometry x="96" y="190" width="120" height="50" as="geometry" />
        </mxCell>
        <mxCell id="SOv4PDBPDqA4SqC1FePv-5" value="Firmware" style="rounded=0;whiteSpace=wrap;html=1;fillColor=#d5e8d4;strokeColor=#82b366;" vertex="1" parent="1">
          <mxGeometry x="96" y="240" width="120" height="50" as="geometry" />
        </mxCell>
        <mxCell id="SOv4PDBPDqA4SqC1FePv-7" value="" style="shape=flexArrow;endArrow=classic;html=1;fillColor=#dae8fc;strokeColor=#6c8ebf;" edge="1" parent="1">
          <mxGeometry width="50" height="50" relative="1" as="geometry">
            <mxPoint x="230" y="214.71" as="sourcePoint" />
            <mxPoint x="280" y="170" as="targetPoint" />
          </mxGeometry>
        </mxCell>
        <mxCell id="SOv4PDBPDqA4SqC1FePv-8" value="" style="shape=flexArrow;endArrow=classic;html=1;fillColor=#d5e8d4;strokeColor=#82b366;" edge="1" parent="1">
          <mxGeometry width="50" height="50" relative="1" as="geometry">
            <mxPoint x="230" y="270" as="sourcePoint" />
            <mxPoint x="280" y="310" as="targetPoint" />
          </mxGeometry>
        </mxCell>
        <mxCell id="SOv4PDBPDqA4SqC1FePv-10" value="net_device" style="rounded=0;whiteSpace=wrap;html=1;fillColor=#dae8fc;strokeColor=#6c8ebf;" vertex="1" parent="1">
          <mxGeometry x="490" y="130" width="90" height="20" as="geometry" />
        </mxCell>
        <mxCell id="SOv4PDBPDqA4SqC1FePv-11" value="&lt;font style=&quot;font-size: 10px&quot;&gt;perm_addr&lt;/font&gt;" style="rounded=0;whiteSpace=wrap;html=1;fillColor=#f5f5f5;strokeColor=#666666;fontColor=#333333;" vertex="1" parent="1">
          <mxGeometry x="490" y="150" width="90" height="20" as="geometry" />
        </mxCell>
        <mxCell id="SOv4PDBPDqA4SqC1FePv-12" value="dev_addr" style="rounded=0;whiteSpace=wrap;html=1;fillColor=#f5f5f5;strokeColor=#666666;fontColor=#333333;" vertex="1" parent="1">
          <mxGeometry x="490" y="170" width="90" height="20" as="geometry" />
        </mxCell>
        <mxCell id="SOv4PDBPDqA4SqC1FePv-14" value="&lt;div style=&quot;font-size: 10px&quot;&gt;&lt;font style=&quot;font-size: 10px&quot;&gt;xradio_common&lt;/font&gt;&lt;/div&gt;" style="rounded=0;whiteSpace=wrap;html=1;fillColor=#dae8fc;strokeColor=#6c8ebf;" vertex="1" parent="1">
          <mxGeometry x="290" y="130" width="90" height="20" as="geometry" />
        </mxCell>
        <mxCell id="SOv4PDBPDqA4SqC1FePv-15" value="&lt;font style=&quot;font-size: 10px&quot;&gt;addresses&lt;/font&gt;&lt;font style=&quot;font-size: 10px&quot;&gt;&lt;br&gt;&lt;/font&gt;" style="rounded=0;whiteSpace=wrap;html=1;fillColor=#f5f5f5;strokeColor=#666666;fontColor=#333333;" vertex="1" parent="1">
          <mxGeometry x="290" y="150" width="90" height="20" as="geometry" />
        </mxCell>
        <mxCell id="SOv4PDBPDqA4SqC1FePv-16" value="&lt;font style=&quot;font-size: 10px&quot;&gt;mac_addr&lt;/font&gt;" style="rounded=0;whiteSpace=wrap;html=1;fillColor=#f5f5f5;strokeColor=#666666;fontColor=#333333;" vertex="1" parent="1">
          <mxGeometry x="290" y="170" width="90" height="20" as="geometry" />
        </mxCell>
        <mxCell id="SOv4PDBPDqA4SqC1FePv-17" value="wiphy" style="rounded=0;whiteSpace=wrap;html=1;fillColor=#dae8fc;strokeColor=#6c8ebf;" vertex="1" parent="1">
          <mxGeometry x="390" y="130" width="90" height="20" as="geometry" />
        </mxCell>
        <mxCell id="SOv4PDBPDqA4SqC1FePv-18" value="perm_addr" style="rounded=0;whiteSpace=wrap;html=1;fillColor=#f5f5f5;strokeColor=#666666;fontColor=#333333;" vertex="1" parent="1">
          <mxGeometry x="390" y="150" width="90" height="20" as="geometry" />
        </mxCell>
        <mxCell id="SOv4PDBPDqA4SqC1FePv-19" value="addresses" style="rounded=0;whiteSpace=wrap;html=1;fillColor=#f5f5f5;strokeColor=#666666;fontColor=#333333;" vertex="1" parent="1">
          <mxGeometry x="390" y="170" width="90" height="20" as="geometry" />
        </mxCell>
        <mxCell id="SOv4PDBPDqA4SqC1FePv-20" value="wireless_dev" style="rounded=0;whiteSpace=wrap;html=1;fillColor=#dae8fc;strokeColor=#6c8ebf;" vertex="1" parent="1">
          <mxGeometry x="590" y="130" width="90" height="20" as="geometry" />
        </mxCell>
        <mxCell id="SOv4PDBPDqA4SqC1FePv-23" value="ieee80211_vif" style="rounded=0;whiteSpace=wrap;html=1;fillColor=#dae8fc;strokeColor=#6c8ebf;" vertex="1" parent="1">
          <mxGeometry x="690" y="130" width="90" height="20" as="geometry" />
        </mxCell>
        <mxCell id="SOv4PDBPDqA4SqC1FePv-24" value="addr" style="rounded=0;whiteSpace=wrap;html=1;fillColor=#f5f5f5;strokeColor=#666666;fontColor=#333333;" vertex="1" parent="1">
          <mxGeometry x="690" y="150" width="90" height="20" as="geometry" />
        </mxCell>
        <mxCell id="SOv4PDBPDqA4SqC1FePv-29" value="address" style="rounded=0;whiteSpace=wrap;html=1;fillColor=#f5f5f5;strokeColor=#666666;fontColor=#333333;" vertex="1" parent="1">
          <mxGeometry x="590" y="150" width="90" height="20" as="geometry" />
        </mxCell>
      </root>
    </mxGraphModel>
  </diagram>
</mxfile>
